<mxfile host="app.diagrams.net" agent="Mozilla/5.0 (Windows NT 10.0; Win64; x64) AppleWebKit/537.36 (KHTML, like Gecko) Chrome/135.0.0.0 Safari/537.36 Edg/135.0.0.0" version="26.2.14">
  <diagram name="第 1 页" id="HmjOjDHkeifQtBeMnm7m">
    <mxGraphModel dx="2058" dy="1146" grid="1" gridSize="10" guides="1" tooltips="1" connect="1" arrows="1" fold="1" page="1" pageScale="1" pageWidth="1654" pageHeight="1169" math="0" shadow="0">
      <root>
        <mxCell id="0" />
        <mxCell id="1" parent="0" />
        <mxCell id="zx14Y4O1JEKNaO2EkPZ3-2" value="&lt;span style=&quot;font-size: 16px;&quot;&gt;&lt;b&gt;视觉语言多模态层&lt;/b&gt;&lt;/span&gt;" style="rounded=0;whiteSpace=wrap;html=1;verticalAlign=top;dashed=1;dashPattern=12 12;fillStyle=auto;" vertex="1" parent="1">
          <mxGeometry x="240" y="190" width="141" height="381" as="geometry" />
        </mxCell>
        <mxCell id="zx14Y4O1JEKNaO2EkPZ3-3" value="&lt;font style=&quot;font-size: 16px;&quot;&gt;&lt;b&gt;感知层&lt;/b&gt;&lt;/font&gt;" style="rounded=0;whiteSpace=wrap;html=1;verticalAlign=top;dashed=1;dashPattern=12 12;" vertex="1" parent="1">
          <mxGeometry x="417" y="193" width="365" height="378" as="geometry" />
        </mxCell>
        <mxCell id="zx14Y4O1JEKNaO2EkPZ3-4" value="&lt;font style=&quot;font-size: 16px;&quot;&gt;&lt;b&gt;任务决策层&lt;/b&gt;&lt;/font&gt;" style="rounded=0;whiteSpace=wrap;html=1;verticalAlign=top;dashed=1;dashPattern=12 12;" vertex="1" parent="1">
          <mxGeometry x="820" y="193" width="358" height="377" as="geometry" />
        </mxCell>
        <mxCell id="zx14Y4O1JEKNaO2EkPZ3-5" value="&lt;font style=&quot;font-size: 16px;&quot;&gt;&lt;b&gt;路径规划层&lt;/b&gt;&lt;/font&gt;" style="rounded=0;whiteSpace=wrap;html=1;verticalAlign=bottom;dashed=1;dashPattern=12 12;" vertex="1" parent="1">
          <mxGeometry x="239" y="590" width="1176" height="281" as="geometry" />
        </mxCell>
        <mxCell id="zx14Y4O1JEKNaO2EkPZ3-6" value="&lt;font style=&quot;font-size: 16px;&quot;&gt;&lt;b&gt;执行控制层&lt;/b&gt;&lt;/font&gt;" style="rounded=0;whiteSpace=wrap;html=1;verticalAlign=top;dashed=1;dashPattern=12 12;" vertex="1" parent="1">
          <mxGeometry x="1199" y="193" width="214" height="157" as="geometry" />
        </mxCell>
        <mxCell id="zx14Y4O1JEKNaO2EkPZ3-7" value="&lt;font style=&quot;font-size: 14px;&quot;&gt;&lt;b&gt;几何-语义地图&lt;/b&gt;&lt;/font&gt;" style="rounded=1;whiteSpace=wrap;html=1;verticalAlign=top;" vertex="1" parent="1">
          <mxGeometry x="425.5" y="228" width="170.5" height="334" as="geometry" />
        </mxCell>
        <mxCell id="zx14Y4O1JEKNaO2EkPZ3-8" value="几何层" style="rounded=0;whiteSpace=wrap;html=1;verticalAlign=top;dashed=1;dashPattern=8 8;" vertex="1" parent="1">
          <mxGeometry x="435.5" y="266" width="147" height="136" as="geometry" />
        </mxCell>
        <mxCell id="zx14Y4O1JEKNaO2EkPZ3-9" value="语义层" style="rounded=0;whiteSpace=wrap;html=1;verticalAlign=bottom;dashed=1;dashPattern=8 8;" vertex="1" parent="1">
          <mxGeometry x="435.5" y="418" width="147" height="131" as="geometry" />
        </mxCell>
        <mxCell id="zx14Y4O1JEKNaO2EkPZ3-10" value="&lt;font style=&quot;font-size: 14px;&quot;&gt;&lt;b&gt;混合价值评估&lt;/b&gt;&lt;/font&gt;" style="rounded=1;whiteSpace=wrap;html=1;verticalAlign=top;" vertex="1" parent="1">
          <mxGeometry x="834" y="231" width="147" height="183" as="geometry" />
        </mxCell>
        <mxCell id="zx14Y4O1JEKNaO2EkPZ3-11" style="rounded=0;orthogonalLoop=1;jettySize=auto;html=1;curved=0;strokeColor=default;flowAnimation=0;shadow=0;jumpStyle=line;jumpSize=6;endArrow=none;startFill=0;" edge="1" parent="1" source="zx14Y4O1JEKNaO2EkPZ3-12">
          <mxGeometry relative="1" as="geometry">
            <mxPoint x="998" y="285" as="targetPoint" />
          </mxGeometry>
        </mxCell>
        <mxCell id="zx14Y4O1JEKNaO2EkPZ3-12" value="结构重要性SSW" style="rounded=0;whiteSpace=wrap;html=1;" vertex="1" parent="1">
          <mxGeometry x="846" y="266" width="120" height="37" as="geometry" />
        </mxCell>
        <mxCell id="zx14Y4O1JEKNaO2EkPZ3-13" style="edgeStyle=orthogonalEdgeStyle;rounded=0;orthogonalLoop=1;jettySize=auto;html=1;flowAnimation=0;endArrow=none;startFill=0;" edge="1" parent="1" source="zx14Y4O1JEKNaO2EkPZ3-14">
          <mxGeometry relative="1" as="geometry">
            <mxPoint x="997.0537700037803" y="333.5" as="targetPoint" />
          </mxGeometry>
        </mxCell>
        <mxCell id="zx14Y4O1JEKNaO2EkPZ3-14" value="幸存者潜力USPM" style="rounded=0;whiteSpace=wrap;html=1;" vertex="1" parent="1">
          <mxGeometry x="846" y="315" width="120" height="37" as="geometry" />
        </mxCell>
        <mxCell id="zx14Y4O1JEKNaO2EkPZ3-15" style="edgeStyle=orthogonalEdgeStyle;rounded=0;orthogonalLoop=1;jettySize=auto;html=1;endArrow=none;startFill=0;" edge="1" parent="1" source="zx14Y4O1JEKNaO2EkPZ3-16">
          <mxGeometry relative="1" as="geometry">
            <mxPoint x="997.1705237100291" y="382.5" as="targetPoint" />
          </mxGeometry>
        </mxCell>
        <mxCell id="zx14Y4O1JEKNaO2EkPZ3-16" value="风险指数RI" style="rounded=0;whiteSpace=wrap;html=1;" vertex="1" parent="1">
          <mxGeometry x="846" y="364" width="120" height="37" as="geometry" />
        </mxCell>
        <mxCell id="zx14Y4O1JEKNaO2EkPZ3-17" value="&lt;font style=&quot;font-size: 14px;&quot;&gt;&lt;b&gt;动态权重引擎&lt;/b&gt;&lt;/font&gt;" style="rounded=1;whiteSpace=wrap;html=1;verticalAlign=top;" vertex="1" parent="1">
          <mxGeometry x="1012" y="231" width="147" height="182" as="geometry" />
        </mxCell>
        <mxCell id="zx14Y4O1JEKNaO2EkPZ3-18" style="rounded=0;orthogonalLoop=1;jettySize=auto;html=1;" edge="1" parent="1" target="zx14Y4O1JEKNaO2EkPZ3-19">
          <mxGeometry relative="1" as="geometry">
            <mxPoint x="997.0537700037803" y="295" as="sourcePoint" />
          </mxGeometry>
        </mxCell>
        <mxCell id="zx14Y4O1JEKNaO2EkPZ3-19" value="探索阶段&lt;div&gt;（未发现幸存者）&lt;/div&gt;" style="rounded=0;whiteSpace=wrap;html=1;" vertex="1" parent="1">
          <mxGeometry x="1025" y="266" width="121" height="58" as="geometry" />
        </mxCell>
        <mxCell id="zx14Y4O1JEKNaO2EkPZ3-20" style="rounded=0;orthogonalLoop=1;jettySize=auto;html=1;" edge="1" parent="1" target="zx14Y4O1JEKNaO2EkPZ3-21">
          <mxGeometry relative="1" as="geometry">
            <mxPoint x="997" y="372" as="sourcePoint" />
          </mxGeometry>
        </mxCell>
        <mxCell id="zx14Y4O1JEKNaO2EkPZ3-21" value="搜救阶段&lt;div&gt;（检测到幸存者）&lt;/div&gt;" style="rounded=0;whiteSpace=wrap;html=1;" vertex="1" parent="1">
          <mxGeometry x="1025.5" y="344" width="120" height="56" as="geometry" />
        </mxCell>
        <mxCell id="zx14Y4O1JEKNaO2EkPZ3-22" value="&lt;font style=&quot;font-size: 14px;&quot;&gt;&lt;b&gt;Hybrid策略网络&lt;/b&gt;&lt;/font&gt;" style="rounded=1;whiteSpace=wrap;html=1;verticalAlign=top;" vertex="1" parent="1">
          <mxGeometry x="257.37" y="710" width="905" height="125" as="geometry" />
        </mxCell>
        <mxCell id="zx14Y4O1JEKNaO2EkPZ3-23" value="&lt;font style=&quot;font-size: 14px;&quot;&gt;&lt;b&gt;状态空间&lt;/b&gt;&lt;/font&gt;" style="rounded=1;whiteSpace=wrap;html=1;verticalAlign=top;" vertex="1" parent="1">
          <mxGeometry x="255" y="608" width="439" height="82" as="geometry" />
        </mxCell>
        <mxCell id="zx14Y4O1JEKNaO2EkPZ3-24" value="几何编码器（CNN）" style="rounded=0;whiteSpace=wrap;html=1;" vertex="1" parent="1">
          <mxGeometry x="272.75" y="735" width="422.25" height="36" as="geometry" />
        </mxCell>
        <mxCell id="zx14Y4O1JEKNaO2EkPZ3-25" style="rounded=0;orthogonalLoop=1;jettySize=auto;html=1;strokeWidth=1;entryX=0.75;entryY=0;entryDx=0;entryDy=0;" edge="1" parent="1" source="zx14Y4O1JEKNaO2EkPZ3-26" target="zx14Y4O1JEKNaO2EkPZ3-47">
          <mxGeometry relative="1" as="geometry">
            <mxPoint x="929" y="813" as="targetPoint" />
          </mxGeometry>
        </mxCell>
        <mxCell id="zx14Y4O1JEKNaO2EkPZ3-26" value="语义编码器（Transformer）" style="rounded=0;whiteSpace=wrap;html=1;" vertex="1" parent="1">
          <mxGeometry x="710.5" y="735" width="435" height="36.5" as="geometry" />
        </mxCell>
        <mxCell id="zx14Y4O1JEKNaO2EkPZ3-27" value="&lt;div data-page-id=&quot;BNPAdGCBEommW2xqo2ccPuPGn6e&quot; data-lark-html-role=&quot;root&quot; data-docx-has-block-data=&quot;false&quot;&gt;&lt;div class=&quot;old-record-id-UI9NddCrRo0jrax99HIcFApNn1e&quot;&gt;&lt;font style=&quot;font-size: 15px;&quot;&gt;&lt;b&gt;&lt;span style=&quot;color: light-dark(rgb(0, 0, 0), rgb(255, 255, 255));&quot;&gt;显示安全约束&lt;/span&gt;&lt;/b&gt;&lt;/font&gt;&lt;/div&gt;&lt;/div&gt;" style="rounded=0;whiteSpace=wrap;html=1;verticalAlign=middle;dashed=1;dashPattern=12 12;align=left;labelPosition=right;verticalLabelPosition=middle;textDirection=vertical-lr;spacingLeft=-27;" vertex="1" parent="1">
          <mxGeometry x="1199" y="365" width="215" height="205" as="geometry" />
        </mxCell>
        <mxCell id="zx14Y4O1JEKNaO2EkPZ3-28" style="edgeStyle=orthogonalEdgeStyle;rounded=0;orthogonalLoop=1;jettySize=auto;html=1;" edge="1" parent="1">
          <mxGeometry relative="1" as="geometry">
            <mxPoint x="435.50014557594477" y="333.2503781340843" as="targetPoint" />
            <mxPoint x="366.88" y="289.7" as="sourcePoint" />
            <Array as="points">
              <mxPoint x="367" y="280" />
              <mxPoint x="402" y="280" />
              <mxPoint x="402" y="333" />
            </Array>
          </mxGeometry>
        </mxCell>
        <mxCell id="zx14Y4O1JEKNaO2EkPZ3-29" value="深度图" style="rounded=1;whiteSpace=wrap;html=1;verticalAlign=top;" vertex="1" parent="1">
          <mxGeometry x="253" y="237.5" width="115" height="82" as="geometry" />
        </mxCell>
        <mxCell id="zx14Y4O1JEKNaO2EkPZ3-30" style="edgeStyle=orthogonalEdgeStyle;rounded=0;orthogonalLoop=1;jettySize=auto;html=1;" edge="1" parent="1" source="zx14Y4O1JEKNaO2EkPZ3-31" target="zx14Y4O1JEKNaO2EkPZ3-8">
          <mxGeometry relative="1" as="geometry">
            <Array as="points">
              <mxPoint x="402" y="366" />
              <mxPoint x="402" y="334" />
            </Array>
          </mxGeometry>
        </mxCell>
        <mxCell id="zx14Y4O1JEKNaO2EkPZ3-31" value="RGB图像" style="rounded=1;whiteSpace=wrap;html=1;verticalAlign=top;" vertex="1" parent="1">
          <mxGeometry x="252" y="338" width="115" height="84" as="geometry" />
        </mxCell>
        <mxCell id="zx14Y4O1JEKNaO2EkPZ3-32" value="" style="rounded=0;orthogonalLoop=1;jettySize=auto;html=1;entryX=0.503;entryY=1;entryDx=0;entryDy=0;entryPerimeter=0;" edge="1" parent="1">
          <mxGeometry relative="1" as="geometry">
            <mxPoint x="1305.7209577464787" y="498" as="sourcePoint" />
            <mxPoint x="1305.492" y="481.9999999999999" as="targetPoint" />
          </mxGeometry>
        </mxCell>
        <mxCell id="zx14Y4O1JEKNaO2EkPZ3-33" value="生成规避动作" style="rounded=0;whiteSpace=wrap;html=1;" vertex="1" parent="1">
          <mxGeometry x="1219" y="498" width="162" height="39" as="geometry" />
        </mxCell>
        <mxCell id="zx14Y4O1JEKNaO2EkPZ3-34" value="" style="rounded=0;orthogonalLoop=1;jettySize=auto;html=1;" edge="1" parent="1">
          <mxGeometry relative="1" as="geometry">
            <mxPoint x="1304.8189655172414" y="440" as="sourcePoint" />
            <mxPoint x="1304.6724137931037" y="423" as="targetPoint" />
          </mxGeometry>
        </mxCell>
        <mxCell id="zx14Y4O1JEKNaO2EkPZ3-35" value="语义风险地图校准" style="rounded=0;whiteSpace=wrap;html=1;" vertex="1" parent="1">
          <mxGeometry x="1217" y="440" width="164" height="42" as="geometry" />
        </mxCell>
        <mxCell id="zx14Y4O1JEKNaO2EkPZ3-36" value="几何特征" style="rounded=0;whiteSpace=wrap;html=1;" vertex="1" parent="1">
          <mxGeometry x="375" y="640" width="90" height="37" as="geometry" />
        </mxCell>
        <mxCell id="zx14Y4O1JEKNaO2EkPZ3-37" value="语义向量" style="rounded=0;whiteSpace=wrap;html=1;" vertex="1" parent="1">
          <mxGeometry x="482" y="640" width="90" height="37" as="geometry" />
        </mxCell>
        <mxCell id="zx14Y4O1JEKNaO2EkPZ3-38" value="价值评分" style="rounded=0;whiteSpace=wrap;html=1;" vertex="1" parent="1">
          <mxGeometry x="590" y="640" width="90" height="37" as="geometry" />
        </mxCell>
        <mxCell id="zx14Y4O1JEKNaO2EkPZ3-39" value="机器人状态" style="rounded=0;whiteSpace=wrap;html=1;" vertex="1" parent="1">
          <mxGeometry x="269" y="640" width="90" height="37" as="geometry" />
        </mxCell>
        <mxCell id="zx14Y4O1JEKNaO2EkPZ3-40" style="rounded=0;orthogonalLoop=1;jettySize=auto;html=1;entryX=0.75;entryY=0;entryDx=0;entryDy=0;" edge="1" parent="1" source="zx14Y4O1JEKNaO2EkPZ3-41" target="zx14Y4O1JEKNaO2EkPZ3-22">
          <mxGeometry relative="1" as="geometry" />
        </mxCell>
        <mxCell id="zx14Y4O1JEKNaO2EkPZ3-41" value="&lt;font style=&quot;font-size: 14px;&quot;&gt;&lt;b&gt;奖励函数&lt;/b&gt;&lt;/font&gt;" style="rounded=1;whiteSpace=wrap;html=1;verticalAlign=top;" vertex="1" parent="1">
          <mxGeometry x="712" y="608" width="448" height="81" as="geometry" />
        </mxCell>
        <mxCell id="zx14Y4O1JEKNaO2EkPZ3-42" value="结构探索奖励" style="rounded=0;whiteSpace=wrap;html=1;" vertex="1" parent="1">
          <mxGeometry x="734" y="637" width="90" height="37" as="geometry" />
        </mxCell>
        <mxCell id="zx14Y4O1JEKNaO2EkPZ3-43" value="目标接近奖励" style="rounded=0;whiteSpace=wrap;html=1;" vertex="1" parent="1">
          <mxGeometry x="842" y="637" width="90" height="37" as="geometry" />
        </mxCell>
        <mxCell id="zx14Y4O1JEKNaO2EkPZ3-44" value="风险惩罚" style="rounded=0;whiteSpace=wrap;html=1;" vertex="1" parent="1">
          <mxGeometry x="950" y="637" width="90" height="37" as="geometry" />
        </mxCell>
        <mxCell id="zx14Y4O1JEKNaO2EkPZ3-45" value="安全奖励" style="rounded=0;whiteSpace=wrap;html=1;" vertex="1" parent="1">
          <mxGeometry x="1052" y="637" width="90" height="37" as="geometry" />
        </mxCell>
        <mxCell id="zx14Y4O1JEKNaO2EkPZ3-46" style="edgeStyle=orthogonalEdgeStyle;rounded=0;orthogonalLoop=1;jettySize=auto;html=1;entryX=0.498;entryY=0.844;entryDx=0;entryDy=0;entryPerimeter=0;" edge="1" parent="1" source="zx14Y4O1JEKNaO2EkPZ3-47" target="zx14Y4O1JEKNaO2EkPZ3-27">
          <mxGeometry relative="1" as="geometry">
            <Array as="points">
              <mxPoint x="1172" y="843" />
              <mxPoint x="1172" y="580" />
              <mxPoint x="1306" y="580" />
            </Array>
          </mxGeometry>
        </mxCell>
        <mxCell id="zx14Y4O1JEKNaO2EkPZ3-47" value="特征融合" style="rounded=0;whiteSpace=wrap;html=1;" vertex="1" parent="1">
          <mxGeometry x="272.75" y="792" width="874.25" height="28" as="geometry" />
        </mxCell>
        <mxCell id="zx14Y4O1JEKNaO2EkPZ3-48" value="$$6DoF位姿估计$$" style="rounded=0;whiteSpace=wrap;html=1;" vertex="1" parent="1">
          <mxGeometry x="449" y="293" width="120" height="37" as="geometry" />
        </mxCell>
        <mxCell id="zx14Y4O1JEKNaO2EkPZ3-49" value="几何栅格地图" style="rounded=0;whiteSpace=wrap;html=1;" vertex="1" parent="1">
          <mxGeometry x="449" y="350" width="120" height="37" as="geometry" />
        </mxCell>
        <mxCell id="zx14Y4O1JEKNaO2EkPZ3-50" style="edgeStyle=orthogonalEdgeStyle;rounded=0;orthogonalLoop=1;jettySize=auto;html=1;entryX=0.5;entryY=1;entryDx=0;entryDy=0;" edge="1" parent="1" source="zx14Y4O1JEKNaO2EkPZ3-51" target="zx14Y4O1JEKNaO2EkPZ3-53">
          <mxGeometry relative="1" as="geometry" />
        </mxCell>
        <mxCell id="zx14Y4O1JEKNaO2EkPZ3-51" value="救援语义通道扩展" style="rounded=0;whiteSpace=wrap;html=1;" vertex="1" parent="1">
          <mxGeometry x="449" y="488.5" width="120" height="37" as="geometry" />
        </mxCell>
        <mxCell id="zx14Y4O1JEKNaO2EkPZ3-52" style="edgeStyle=orthogonalEdgeStyle;rounded=0;orthogonalLoop=1;jettySize=auto;html=1;entryX=0.5;entryY=1;entryDx=0;entryDy=0;" edge="1" parent="1" source="zx14Y4O1JEKNaO2EkPZ3-53" target="zx14Y4O1JEKNaO2EkPZ3-49">
          <mxGeometry relative="1" as="geometry" />
        </mxCell>
        <mxCell id="zx14Y4O1JEKNaO2EkPZ3-53" value="视觉语言大模型CLIP" style="rounded=0;whiteSpace=wrap;html=1;" vertex="1" parent="1">
          <mxGeometry x="449" y="432" width="120" height="37" as="geometry" />
        </mxCell>
        <mxCell id="zx14Y4O1JEKNaO2EkPZ3-54" value="安全动作输出" style="rounded=0;whiteSpace=wrap;html=1;" vertex="1" parent="1">
          <mxGeometry x="1217" y="383" width="163" height="40" as="geometry" />
        </mxCell>
        <mxCell id="zx14Y4O1JEKNaO2EkPZ3-55" value="&lt;font style=&quot;font-size: 14px;&quot;&gt;&lt;b&gt;零样本视觉语言理解&lt;/b&gt;&lt;/font&gt;" style="rounded=1;whiteSpace=wrap;html=1;verticalAlign=top;" vertex="1" parent="1">
          <mxGeometry x="620" y="228" width="153" height="333" as="geometry" />
        </mxCell>
        <mxCell id="zx14Y4O1JEKNaO2EkPZ3-56" style="edgeStyle=orthogonalEdgeStyle;rounded=0;orthogonalLoop=1;jettySize=auto;html=1;entryX=0;entryY=0.5;entryDx=0;entryDy=0;" edge="1" parent="1" source="zx14Y4O1JEKNaO2EkPZ3-53" target="zx14Y4O1JEKNaO2EkPZ3-61">
          <mxGeometry relative="1" as="geometry">
            <Array as="points">
              <mxPoint x="609" y="450" />
              <mxPoint x="609" y="414" />
            </Array>
          </mxGeometry>
        </mxCell>
        <mxCell id="zx14Y4O1JEKNaO2EkPZ3-57" style="edgeStyle=orthogonalEdgeStyle;rounded=0;orthogonalLoop=1;jettySize=auto;html=1;entryX=0;entryY=0.5;entryDx=0;entryDy=0;" edge="1" parent="1" source="zx14Y4O1JEKNaO2EkPZ3-53" target="zx14Y4O1JEKNaO2EkPZ3-59">
          <mxGeometry relative="1" as="geometry">
            <Array as="points">
              <mxPoint x="609" y="451" />
              <mxPoint x="609" y="322" />
            </Array>
          </mxGeometry>
        </mxCell>
        <mxCell id="zx14Y4O1JEKNaO2EkPZ3-58" style="edgeStyle=orthogonalEdgeStyle;rounded=0;orthogonalLoop=1;jettySize=auto;html=1;entryX=0;entryY=0.5;entryDx=0;entryDy=0;" edge="1" parent="1" source="zx14Y4O1JEKNaO2EkPZ3-59" target="zx14Y4O1JEKNaO2EkPZ3-12">
          <mxGeometry relative="1" as="geometry">
            <Array as="points">
              <mxPoint x="795" y="322" />
              <mxPoint x="795" y="285" />
            </Array>
          </mxGeometry>
        </mxCell>
        <mxCell id="zx14Y4O1JEKNaO2EkPZ3-59" value="结构语义分类&lt;div&gt;&lt;br&gt;&lt;div&gt;&lt;div data-docx-has-block-data=&quot;false&quot; data-lark-html-role=&quot;root&quot; data-page-id=&quot;BNPAdGCBEommW2xqo2ccPuPGn6e&quot;&gt;&lt;div class=&quot;old-record-id-DT5TdP6Pmoqp0Vxr48qcs23pnCh&quot;&gt;&lt;div data-docx-has-block-data=&quot;false&quot; data-lark-html-role=&quot;root&quot; data-page-id=&quot;BNPAdGCBEommW2xqo2ccPuPGn6e&quot;&gt;&lt;div class=&quot;old-record-id-DT5TdP6Pmoqp0Vxr48qcs23pnCh&quot;&gt;（走廊/房间/坍塌区）&lt;/div&gt;&lt;/div&gt;&lt;span class=&quot;lark-record-clipboard&quot; data-lark-record-format=&quot;docx/text&quot; data-lark-record-data=&quot;{&amp;quot;rootId&amp;quot;:&amp;quot;BNPAdGCBEommW2xqo2ccPuPGn6e&amp;quot;,&amp;quot;text&amp;quot;:{&amp;quot;initialAttributedTexts&amp;quot;:{&amp;quot;text&amp;quot;:{&amp;quot;0&amp;quot;:&amp;quot;（走廊/房间/坍塌区）&amp;quot;},&amp;quot;attribs&amp;quot;:{&amp;quot;0&amp;quot;:&amp;quot;*0+b&amp;quot;}},&amp;quot;apool&amp;quot;:{&amp;quot;numToAttrib&amp;quot;:{&amp;quot;0&amp;quot;:[&amp;quot;author&amp;quot;,&amp;quot;7080140424181972994&amp;quot;]},&amp;quot;nextNum&amp;quot;:1}},&amp;quot;type&amp;quot;:&amp;quot;text&amp;quot;,&amp;quot;referenceRecordMap&amp;quot;:{},&amp;quot;extra&amp;quot;:{&amp;quot;channel&amp;quot;:&amp;quot;saas&amp;quot;,&amp;quot;isEqualBlockSelection&amp;quot;:false,&amp;quot;pasteRandomId&amp;quot;:&amp;quot;9df31aa9-b0b8-46e3-8a2a-89151a6c7a31&amp;quot;,&amp;quot;mention_page_title&amp;quot;:{},&amp;quot;external_mention_url&amp;quot;:{}},&amp;quot;isKeepQuoteContainer&amp;quot;:false,&amp;quot;isFromCode&amp;quot;:false,&amp;quot;selection&amp;quot;:[{&amp;quot;id&amp;quot;:395,&amp;quot;type&amp;quot;:&amp;quot;text&amp;quot;,&amp;quot;selection&amp;quot;:{&amp;quot;start&amp;quot;:17,&amp;quot;end&amp;quot;:28},&amp;quot;recordId&amp;quot;:&amp;quot;DT5TdP6Pmoqp0Vxr48qcs23pnCh&amp;quot;}],&amp;quot;payloadMap&amp;quot;:{},&amp;quot;isCut&amp;quot;:false}&quot;&gt;&lt;/span&gt;&lt;/div&gt;&lt;/div&gt;&lt;span class=&quot;lark-record-clipboard&quot; data-lark-record-format=&quot;docx/text&quot; data-lark-record-data=&quot;{&amp;quot;rootId&amp;quot;:&amp;quot;BNPAdGCBEommW2xqo2ccPuPGn6e&amp;quot;,&amp;quot;text&amp;quot;:{&amp;quot;initialAttributedTexts&amp;quot;:{&amp;quot;text&amp;quot;:{&amp;quot;0&amp;quot;:&amp;quot;“走廊”置信度0.8&amp;quot;},&amp;quot;attribs&amp;quot;:{&amp;quot;0&amp;quot;:&amp;quot;*0+a&amp;quot;}},&amp;quot;apool&amp;quot;:{&amp;quot;numToAttrib&amp;quot;:{&amp;quot;0&amp;quot;:[&amp;quot;author&amp;quot;,&amp;quot;7080140424181972994&amp;quot;]},&amp;quot;nextNum&amp;quot;:1}},&amp;quot;type&amp;quot;:&amp;quot;text&amp;quot;,&amp;quot;referenceRecordMap&amp;quot;:{},&amp;quot;extra&amp;quot;:{&amp;quot;channel&amp;quot;:&amp;quot;saas&amp;quot;,&amp;quot;isEqualBlockSelection&amp;quot;:false,&amp;quot;pasteRandomId&amp;quot;:&amp;quot;2c8e4454-00a4-433e-9368-806bf7da104c&amp;quot;,&amp;quot;mention_page_title&amp;quot;:{},&amp;quot;external_mention_url&amp;quot;:{}},&amp;quot;isKeepQuoteContainer&amp;quot;:false,&amp;quot;isFromCode&amp;quot;:false,&amp;quot;selection&amp;quot;:[{&amp;quot;id&amp;quot;:395,&amp;quot;type&amp;quot;:&amp;quot;text&amp;quot;,&amp;quot;selection&amp;quot;:{&amp;quot;start&amp;quot;:38,&amp;quot;end&amp;quot;:48},&amp;quot;recordId&amp;quot;:&amp;quot;DT5TdP6Pmoqp0Vxr48qcs23pnCh&amp;quot;}],&amp;quot;payloadMap&amp;quot;:{},&amp;quot;isCut&amp;quot;:false}&quot;&gt;&lt;/span&gt;&lt;/div&gt;&lt;/div&gt;" style="rounded=0;whiteSpace=wrap;html=1;" vertex="1" parent="1">
          <mxGeometry x="634.5" y="288.25" width="119" height="67.5" as="geometry" />
        </mxCell>
        <mxCell id="zx14Y4O1JEKNaO2EkPZ3-60" style="edgeStyle=orthogonalEdgeStyle;rounded=0;orthogonalLoop=1;jettySize=auto;html=1;entryX=0;entryY=0.5;entryDx=0;entryDy=0;" edge="1" parent="1" source="zx14Y4O1JEKNaO2EkPZ3-61" target="zx14Y4O1JEKNaO2EkPZ3-14">
          <mxGeometry relative="1" as="geometry" />
        </mxCell>
        <mxCell id="zx14Y4O1JEKNaO2EkPZ3-61" value="幸存者概率热图&lt;div&gt;&lt;div style=&quot;white-space-collapse: preserve;&quot; data-line=&quot;true&quot; data-line-index=&quot;0&quot; data-zone-id=&quot;0&quot;&gt;&lt;font style=&quot;font-size: 11px;&quot;&gt;$$P_{\text{survivor}}(x,y) \in [0,1] $$&lt;/font&gt;&lt;/div&gt;&lt;/div&gt;" style="rounded=0;whiteSpace=wrap;html=1;" vertex="1" parent="1">
          <mxGeometry x="634.5" y="379" width="120" height="71" as="geometry" />
        </mxCell>
        <mxCell id="zx14Y4O1JEKNaO2EkPZ3-62" style="edgeStyle=orthogonalEdgeStyle;rounded=0;orthogonalLoop=1;jettySize=auto;html=1;entryX=0;entryY=0.5;entryDx=0;entryDy=0;" edge="1" parent="1" source="zx14Y4O1JEKNaO2EkPZ3-63" target="zx14Y4O1JEKNaO2EkPZ3-16">
          <mxGeometry relative="1" as="geometry">
            <Array as="points">
              <mxPoint x="811" y="507" />
              <mxPoint x="811" y="383" />
            </Array>
          </mxGeometry>
        </mxCell>
        <mxCell id="zx14Y4O1JEKNaO2EkPZ3-63" value="风险区域检测&lt;div&gt;&lt;span class=&quot;lark-record-clipboard&quot; data-lark-record-format=&quot;docx/text&quot; data-lark-record-data=&quot;{&amp;quot;rootId&amp;quot;:&amp;quot;BNPAdGCBEommW2xqo2ccPuPGn6e&amp;quot;,&amp;quot;text&amp;quot;:{&amp;quot;initialAttributedTexts&amp;quot;:{&amp;quot;text&amp;quot;:{&amp;quot;0&amp;quot;:&amp;quot;“不稳定墙体”&amp;quot;},&amp;quot;attribs&amp;quot;:{&amp;quot;0&amp;quot;:&amp;quot;*0+7&amp;quot;}},&amp;quot;apool&amp;quot;:{&amp;quot;numToAttrib&amp;quot;:{&amp;quot;0&amp;quot;:[&amp;quot;author&amp;quot;,&amp;quot;7080140424181972994&amp;quot;]},&amp;quot;nextNum&amp;quot;:1}},&amp;quot;type&amp;quot;:&amp;quot;text&amp;quot;,&amp;quot;referenceRecordMap&amp;quot;:{},&amp;quot;extra&amp;quot;:{&amp;quot;channel&amp;quot;:&amp;quot;saas&amp;quot;,&amp;quot;isEqualBlockSelection&amp;quot;:false,&amp;quot;pasteRandomId&amp;quot;:&amp;quot;6ad1a1e6-4cdb-4713-b4db-a2832ce5e5d6&amp;quot;,&amp;quot;mention_page_title&amp;quot;:{},&amp;quot;external_mention_url&amp;quot;:{}},&amp;quot;isKeepQuoteContainer&amp;quot;:false,&amp;quot;isFromCode&amp;quot;:false,&amp;quot;selection&amp;quot;:[{&amp;quot;id&amp;quot;:398,&amp;quot;type&amp;quot;:&amp;quot;text&amp;quot;,&amp;quot;selection&amp;quot;:{&amp;quot;start&amp;quot;:13,&amp;quot;end&amp;quot;:20},&amp;quot;recordId&amp;quot;:&amp;quot;SnyCdFY0OoavtcxNeaPcfHy1nrh&amp;quot;}],&amp;quot;payloadMap&amp;quot;:{},&amp;quot;isCut&amp;quot;:false}&quot;&gt;&lt;/span&gt;&lt;/div&gt;&lt;div&gt;&lt;br&gt;&lt;/div&gt;&lt;div&gt;(不稳定墙体/积水区)&lt;/div&gt;" style="rounded=0;whiteSpace=wrap;html=1;" vertex="1" parent="1">
          <mxGeometry x="634.5" y="473" width="120" height="68" as="geometry" />
        </mxCell>
        <mxCell id="zx14Y4O1JEKNaO2EkPZ3-64" value="&lt;div data-docx-has-block-data=&quot;false&quot; data-lark-html-role=&quot;root&quot; data-page-id=&quot;BNPAdGCBEommW2xqo2ccPuPGn6e&quot;&gt;&lt;div class=&quot;old-record-id-MrWGdxZGiolvprx9qxSc6dqvnWe&quot;&gt;&lt;div data-docx-has-block-data=&quot;false&quot; data-lark-html-role=&quot;root&quot; data-page-id=&quot;BNPAdGCBEommW2xqo2ccPuPGn6e&quot;&gt;&lt;div class=&quot;ace-line ace-line old-record-id-MdqQdFTXMoa1VLxG5Y0cHxWdnwl&quot;&gt;&lt;div data-docx-has-block-data=&quot;false&quot; data-lark-html-role=&quot;root&quot; data-page-id=&quot;BNPAdGCBEommW2xqo2ccPuPGn6e&quot;&gt;&lt;div data-docx-has-block-data=&quot;false&quot; data-lark-html-role=&quot;root&quot; data-page-id=&quot;BNPAdGCBEommW2xqo2ccPuPGn6e&quot;&gt;&lt;div class=&quot;old-record-id-LJWMd13EboU8sNxJyBIcaIWCn3g&quot;&gt;&lt;font style=&quot;font-size: 14px;&quot;&gt;&lt;b&gt;语义-价值增强&lt;span style=&quot;color: initial;&quot;&gt;Frontier生成&lt;/span&gt;&lt;/b&gt;&lt;/font&gt;&lt;/div&gt;&lt;/div&gt;&lt;/div&gt;&lt;span class=&quot;lark-record-clipboard&quot; data-lark-record-format=&quot;docx/text&quot; data-lark-record-data=&quot;{&amp;quot;rootId&amp;quot;:&amp;quot;BNPAdGCBEommW2xqo2ccPuPGn6e&amp;quot;,&amp;quot;text&amp;quot;:{&amp;quot;initialAttributedTexts&amp;quot;:{&amp;quot;text&amp;quot;:{&amp;quot;0&amp;quot;:&amp;quot;Frontier生成&amp;quot;},&amp;quot;attribs&amp;quot;:{&amp;quot;0&amp;quot;:&amp;quot;*0*1+a&amp;quot;}},&amp;quot;apool&amp;quot;:{&amp;quot;numToAttrib&amp;quot;:{&amp;quot;0&amp;quot;:[&amp;quot;author&amp;quot;,&amp;quot;7080140424181972994&amp;quot;],&amp;quot;1&amp;quot;:[&amp;quot;bold&amp;quot;,&amp;quot;true&amp;quot;]},&amp;quot;nextNum&amp;quot;:2}},&amp;quot;type&amp;quot;:&amp;quot;text&amp;quot;,&amp;quot;referenceRecordMap&amp;quot;:{},&amp;quot;extra&amp;quot;:{&amp;quot;channel&amp;quot;:&amp;quot;saas&amp;quot;,&amp;quot;isEqualBlockSelection&amp;quot;:false,&amp;quot;pasteRandomId&amp;quot;:&amp;quot;f8a05753-6cb4-4aed-bde6-70c36ad921ee&amp;quot;,&amp;quot;mention_page_title&amp;quot;:{},&amp;quot;external_mention_url&amp;quot;:{}},&amp;quot;isKeepQuoteContainer&amp;quot;:false,&amp;quot;isFromCode&amp;quot;:false,&amp;quot;selection&amp;quot;:[{&amp;quot;id&amp;quot;:251,&amp;quot;type&amp;quot;:&amp;quot;text&amp;quot;,&amp;quot;selection&amp;quot;:{&amp;quot;start&amp;quot;:0,&amp;quot;end&amp;quot;:10},&amp;quot;recordId&amp;quot;:&amp;quot;HUakdoc2soV0hExb6HFcCU7Snog&amp;quot;}],&amp;quot;payloadMap&amp;quot;:{},&amp;quot;isCut&amp;quot;:false}&quot;&gt;&lt;/span&gt;&lt;/div&gt;&lt;/div&gt;&lt;span class=&quot;lark-record-clipboard&quot; data-lark-record-format=&quot;docx/text&quot; data-lark-record-data=&quot;{&amp;quot;rootId&amp;quot;:&amp;quot;BNPAdGCBEommW2xqo2ccPuPGn6e&amp;quot;,&amp;quot;text&amp;quot;:{&amp;quot;initialAttributedTexts&amp;quot;:{&amp;quot;text&amp;quot;:{&amp;quot;0&amp;quot;:&amp;quot; &amp;quot;},&amp;quot;attribs&amp;quot;:{&amp;quot;0&amp;quot;:&amp;quot;*2*0*1+1&amp;quot;}},&amp;quot;apool&amp;quot;:{&amp;quot;numToAttrib&amp;quot;:{&amp;quot;0&amp;quot;:[&amp;quot;equation&amp;quot;,&amp;quot;\\text{FrontierScore}\n&amp;quot;],&amp;quot;1&amp;quot;:[&amp;quot;objectID&amp;quot;,&amp;quot;rOXUzTqO&amp;quot;],&amp;quot;2&amp;quot;:[&amp;quot;author&amp;quot;,&amp;quot;7080140424181972994&amp;quot;]},&amp;quot;nextNum&amp;quot;:3}},&amp;quot;type&amp;quot;:&amp;quot;text&amp;quot;,&amp;quot;referenceRecordMap&amp;quot;:{},&amp;quot;extra&amp;quot;:{&amp;quot;channel&amp;quot;:&amp;quot;saas&amp;quot;,&amp;quot;isEqualBlockSelection&amp;quot;:true,&amp;quot;pasteRandomId&amp;quot;:&amp;quot;67b2a4c2-bbb4-4ff4-b034-cae2410ab669&amp;quot;,&amp;quot;mention_page_title&amp;quot;:{},&amp;quot;external_mention_url&amp;quot;:{}},&amp;quot;isKeepQuoteContainer&amp;quot;:false,&amp;quot;isFromCode&amp;quot;:false,&amp;quot;selection&amp;quot;:[{&amp;quot;id&amp;quot;:252,&amp;quot;type&amp;quot;:&amp;quot;text&amp;quot;,&amp;quot;selection&amp;quot;:{&amp;quot;start&amp;quot;:0,&amp;quot;end&amp;quot;:1},&amp;quot;recordId&amp;quot;:&amp;quot;MdqQdFTXMoa1VLxG5Y0cHxWdnwl&amp;quot;}],&amp;quot;payloadMap&amp;quot;:{},&amp;quot;isCut&amp;quot;:false}&quot;&gt;&lt;/span&gt;&lt;/div&gt;&lt;/div&gt;&lt;span class=&quot;lark-record-clipboard&quot; data-lark-record-format=&quot;docx/text&quot; data-lark-record-data=&quot;{&amp;quot;rootId&amp;quot;:&amp;quot;BNPAdGCBEommW2xqo2ccPuPGn6e&amp;quot;,&amp;quot;text&amp;quot;:{&amp;quot;initialAttributedTexts&amp;quot;:{&amp;quot;text&amp;quot;:{&amp;quot;0&amp;quot;:&amp;quot;价值地图引导的Frontier选择&amp;quot;},&amp;quot;attribs&amp;quot;:{&amp;quot;0&amp;quot;:&amp;quot;*0*1+h&amp;quot;}},&amp;quot;apool&amp;quot;:{&amp;quot;numToAttrib&amp;quot;:{&amp;quot;0&amp;quot;:[&amp;quot;author&amp;quot;,&amp;quot;7080140424181972994&amp;quot;],&amp;quot;1&amp;quot;:[&amp;quot;bold&amp;quot;,&amp;quot;true&amp;quot;]},&amp;quot;nextNum&amp;quot;:2}},&amp;quot;type&amp;quot;:&amp;quot;text&amp;quot;,&amp;quot;referenceRecordMap&amp;quot;:{},&amp;quot;extra&amp;quot;:{&amp;quot;channel&amp;quot;:&amp;quot;saas&amp;quot;,&amp;quot;isEqualBlockSelection&amp;quot;:false,&amp;quot;pasteRandomId&amp;quot;:&amp;quot;e27646a3-14b2-4f86-8ac1-85d0b10dd6ea&amp;quot;,&amp;quot;mention_page_title&amp;quot;:{},&amp;quot;external_mention_url&amp;quot;:{}},&amp;quot;isKeepQuoteContainer&amp;quot;:false,&amp;quot;isFromCode&amp;quot;:false,&amp;quot;selection&amp;quot;:[{&amp;quot;id&amp;quot;:241,&amp;quot;type&amp;quot;:&amp;quot;text&amp;quot;,&amp;quot;selection&amp;quot;:{&amp;quot;start&amp;quot;:0,&amp;quot;end&amp;quot;:17},&amp;quot;recordId&amp;quot;:&amp;quot;MrWGdxZGiolvprx9qxSc6dqvnWe&amp;quot;}],&amp;quot;payloadMap&amp;quot;:{},&amp;quot;isCut&amp;quot;:false}&quot;&gt;&lt;/span&gt;" style="rounded=1;whiteSpace=wrap;html=1;verticalAlign=top;" vertex="1" parent="1">
          <mxGeometry x="833" y="430" width="328" height="123" as="geometry" />
        </mxCell>
        <mxCell id="zx14Y4O1JEKNaO2EkPZ3-65" value="" style="edgeStyle=orthogonalEdgeStyle;rounded=0;orthogonalLoop=1;jettySize=auto;html=1;" edge="1" parent="1" source="zx14Y4O1JEKNaO2EkPZ3-66" target="zx14Y4O1JEKNaO2EkPZ3-67">
          <mxGeometry relative="1" as="geometry">
            <Array as="points">
              <mxPoint x="996" y="513" />
              <mxPoint x="996" y="513" />
            </Array>
          </mxGeometry>
        </mxCell>
        <mxCell id="zx14Y4O1JEKNaO2EkPZ3-66" value="&lt;div data-docx-has-block-data=&quot;false&quot; data-lark-html-role=&quot;root&quot; data-page-id=&quot;BNPAdGCBEommW2xqo2ccPuPGn6e&quot;&gt;&lt;div class=&quot;old-record-id-MrWGdxZGiolvprx9qxSc6dqvnWe&quot;&gt;&lt;div data-docx-has-block-data=&quot;false&quot; data-lark-html-role=&quot;root&quot; data-page-id=&quot;BNPAdGCBEommW2xqo2ccPuPGn6e&quot;&gt;&lt;div class=&quot;ace-line ace-line old-record-id-MdqQdFTXMoa1VLxG5Y0cHxWdnwl&quot;&gt;&lt;span class=&quot;j-block-container&quot;&gt;FrontierScore&lt;/span&gt;&lt;/div&gt;&lt;/div&gt;&lt;span class=&quot;lark-record-clipboard&quot; data-lark-record-format=&quot;docx/text&quot; data-lark-record-data=&quot;{&amp;quot;rootId&amp;quot;:&amp;quot;BNPAdGCBEommW2xqo2ccPuPGn6e&amp;quot;,&amp;quot;text&amp;quot;:{&amp;quot;initialAttributedTexts&amp;quot;:{&amp;quot;text&amp;quot;:{&amp;quot;0&amp;quot;:&amp;quot; &amp;quot;},&amp;quot;attribs&amp;quot;:{&amp;quot;0&amp;quot;:&amp;quot;*2*0*1+1&amp;quot;}},&amp;quot;apool&amp;quot;:{&amp;quot;numToAttrib&amp;quot;:{&amp;quot;0&amp;quot;:[&amp;quot;equation&amp;quot;,&amp;quot;\\text{FrontierScore}\n&amp;quot;],&amp;quot;1&amp;quot;:[&amp;quot;objectID&amp;quot;,&amp;quot;rOXUzTqO&amp;quot;],&amp;quot;2&amp;quot;:[&amp;quot;author&amp;quot;,&amp;quot;7080140424181972994&amp;quot;]},&amp;quot;nextNum&amp;quot;:3}},&amp;quot;type&amp;quot;:&amp;quot;text&amp;quot;,&amp;quot;referenceRecordMap&amp;quot;:{},&amp;quot;extra&amp;quot;:{&amp;quot;channel&amp;quot;:&amp;quot;saas&amp;quot;,&amp;quot;isEqualBlockSelection&amp;quot;:true,&amp;quot;pasteRandomId&amp;quot;:&amp;quot;67b2a4c2-bbb4-4ff4-b034-cae2410ab669&amp;quot;,&amp;quot;mention_page_title&amp;quot;:{},&amp;quot;external_mention_url&amp;quot;:{}},&amp;quot;isKeepQuoteContainer&amp;quot;:false,&amp;quot;isFromCode&amp;quot;:false,&amp;quot;selection&amp;quot;:[{&amp;quot;id&amp;quot;:252,&amp;quot;type&amp;quot;:&amp;quot;text&amp;quot;,&amp;quot;selection&amp;quot;:{&amp;quot;start&amp;quot;:0,&amp;quot;end&amp;quot;:1},&amp;quot;recordId&amp;quot;:&amp;quot;MdqQdFTXMoa1VLxG5Y0cHxWdnwl&amp;quot;}],&amp;quot;payloadMap&amp;quot;:{},&amp;quot;isCut&amp;quot;:false}&quot;&gt;&lt;/span&gt;&lt;/div&gt;&lt;/div&gt;&lt;span class=&quot;lark-record-clipboard&quot; data-lark-record-format=&quot;docx/text&quot; data-lark-record-data=&quot;{&amp;quot;rootId&amp;quot;:&amp;quot;BNPAdGCBEommW2xqo2ccPuPGn6e&amp;quot;,&amp;quot;text&amp;quot;:{&amp;quot;initialAttributedTexts&amp;quot;:{&amp;quot;text&amp;quot;:{&amp;quot;0&amp;quot;:&amp;quot;价值地图引导的Frontier选择&amp;quot;},&amp;quot;attribs&amp;quot;:{&amp;quot;0&amp;quot;:&amp;quot;*0*1+h&amp;quot;}},&amp;quot;apool&amp;quot;:{&amp;quot;numToAttrib&amp;quot;:{&amp;quot;0&amp;quot;:[&amp;quot;author&amp;quot;,&amp;quot;7080140424181972994&amp;quot;],&amp;quot;1&amp;quot;:[&amp;quot;bold&amp;quot;,&amp;quot;true&amp;quot;]},&amp;quot;nextNum&amp;quot;:2}},&amp;quot;type&amp;quot;:&amp;quot;text&amp;quot;,&amp;quot;referenceRecordMap&amp;quot;:{},&amp;quot;extra&amp;quot;:{&amp;quot;channel&amp;quot;:&amp;quot;saas&amp;quot;,&amp;quot;isEqualBlockSelection&amp;quot;:false,&amp;quot;pasteRandomId&amp;quot;:&amp;quot;e27646a3-14b2-4f86-8ac1-85d0b10dd6ea&amp;quot;,&amp;quot;mention_page_title&amp;quot;:{},&amp;quot;external_mention_url&amp;quot;:{}},&amp;quot;isKeepQuoteContainer&amp;quot;:false,&amp;quot;isFromCode&amp;quot;:false,&amp;quot;selection&amp;quot;:[{&amp;quot;id&amp;quot;:241,&amp;quot;type&amp;quot;:&amp;quot;text&amp;quot;,&amp;quot;selection&amp;quot;:{&amp;quot;start&amp;quot;:0,&amp;quot;end&amp;quot;:17},&amp;quot;recordId&amp;quot;:&amp;quot;MrWGdxZGiolvprx9qxSc6dqvnWe&amp;quot;}],&amp;quot;payloadMap&amp;quot;:{},&amp;quot;isCut&amp;quot;:false}&quot;&gt;&lt;/span&gt;" style="rounded=0;whiteSpace=wrap;html=1;" vertex="1" parent="1">
          <mxGeometry x="847.5" y="465" width="299" height="29" as="geometry" />
        </mxCell>
        <mxCell id="zx14Y4O1JEKNaO2EkPZ3-67" value="&lt;div data-docx-has-block-data=&quot;false&quot; data-lark-html-role=&quot;root&quot; data-page-id=&quot;BNPAdGCBEommW2xqo2ccPuPGn6e&quot;&gt;&lt;div class=&quot;old-record-id-MrWGdxZGiolvprx9qxSc6dqvnWe&quot;&gt;&lt;div data-docx-has-block-data=&quot;false&quot; data-lark-html-role=&quot;root&quot; data-page-id=&quot;BNPAdGCBEommW2xqo2ccPuPGn6e&quot;&gt;&lt;div class=&quot;ace-line ace-line old-record-id-MdqQdFTXMoa1VLxG5Y0cHxWdnwl&quot;&gt;&lt;div data-docx-has-block-data=&quot;false&quot; data-lark-html-role=&quot;root&quot; data-page-id=&quot;BNPAdGCBEommW2xqo2ccPuPGn6e&quot;&gt;&lt;div class=&quot;old-record-id-ON2RdJJ0aoLhdgxKIYQc2rJrnkc&quot;&gt;选择Top-3候选点&lt;/div&gt;&lt;/div&gt;&lt;span class=&quot;lark-record-clipboard&quot; data-lark-record-format=&quot;docx/text&quot; data-lark-record-data=&quot;{&amp;quot;rootId&amp;quot;:&amp;quot;BNPAdGCBEommW2xqo2ccPuPGn6e&amp;quot;,&amp;quot;text&amp;quot;:{&amp;quot;initialAttributedTexts&amp;quot;:{&amp;quot;text&amp;quot;:{&amp;quot;0&amp;quot;:&amp;quot;选择Top-3候选点&amp;quot;},&amp;quot;attribs&amp;quot;:{&amp;quot;0&amp;quot;:&amp;quot;*0+a&amp;quot;}},&amp;quot;apool&amp;quot;:{&amp;quot;numToAttrib&amp;quot;:{&amp;quot;0&amp;quot;:[&amp;quot;author&amp;quot;,&amp;quot;7080140424181972994&amp;quot;]},&amp;quot;nextNum&amp;quot;:1}},&amp;quot;type&amp;quot;:&amp;quot;text&amp;quot;,&amp;quot;referenceRecordMap&amp;quot;:{},&amp;quot;extra&amp;quot;:{&amp;quot;channel&amp;quot;:&amp;quot;saas&amp;quot;,&amp;quot;isEqualBlockSelection&amp;quot;:false,&amp;quot;pasteRandomId&amp;quot;:&amp;quot;8e714dca-01f3-4ddd-979a-de3e74d18979&amp;quot;,&amp;quot;mention_page_title&amp;quot;:{},&amp;quot;external_mention_url&amp;quot;:{}},&amp;quot;isKeepQuoteContainer&amp;quot;:false,&amp;quot;isFromCode&amp;quot;:false,&amp;quot;selection&amp;quot;:[{&amp;quot;id&amp;quot;:616,&amp;quot;type&amp;quot;:&amp;quot;text&amp;quot;,&amp;quot;selection&amp;quot;:{&amp;quot;start&amp;quot;:32,&amp;quot;end&amp;quot;:42},&amp;quot;recordId&amp;quot;:&amp;quot;ON2RdJJ0aoLhdgxKIYQc2rJrnkc&amp;quot;}],&amp;quot;payloadMap&amp;quot;:{},&amp;quot;isCut&amp;quot;:false}&quot;&gt;&lt;/span&gt;&lt;/div&gt;&lt;/div&gt;&lt;span class=&quot;lark-record-clipboard&quot; data-lark-record-format=&quot;docx/text&quot; data-lark-record-data=&quot;{&amp;quot;rootId&amp;quot;:&amp;quot;BNPAdGCBEommW2xqo2ccPuPGn6e&amp;quot;,&amp;quot;text&amp;quot;:{&amp;quot;initialAttributedTexts&amp;quot;:{&amp;quot;text&amp;quot;:{&amp;quot;0&amp;quot;:&amp;quot; &amp;quot;},&amp;quot;attribs&amp;quot;:{&amp;quot;0&amp;quot;:&amp;quot;*2*0*1+1&amp;quot;}},&amp;quot;apool&amp;quot;:{&amp;quot;numToAttrib&amp;quot;:{&amp;quot;0&amp;quot;:[&amp;quot;equation&amp;quot;,&amp;quot;\\text{FrontierScore}\n&amp;quot;],&amp;quot;1&amp;quot;:[&amp;quot;objectID&amp;quot;,&amp;quot;rOXUzTqO&amp;quot;],&amp;quot;2&amp;quot;:[&amp;quot;author&amp;quot;,&amp;quot;7080140424181972994&amp;quot;]},&amp;quot;nextNum&amp;quot;:3}},&amp;quot;type&amp;quot;:&amp;quot;text&amp;quot;,&amp;quot;referenceRecordMap&amp;quot;:{},&amp;quot;extra&amp;quot;:{&amp;quot;channel&amp;quot;:&amp;quot;saas&amp;quot;,&amp;quot;isEqualBlockSelection&amp;quot;:true,&amp;quot;pasteRandomId&amp;quot;:&amp;quot;67b2a4c2-bbb4-4ff4-b034-cae2410ab669&amp;quot;,&amp;quot;mention_page_title&amp;quot;:{},&amp;quot;external_mention_url&amp;quot;:{}},&amp;quot;isKeepQuoteContainer&amp;quot;:false,&amp;quot;isFromCode&amp;quot;:false,&amp;quot;selection&amp;quot;:[{&amp;quot;id&amp;quot;:252,&amp;quot;type&amp;quot;:&amp;quot;text&amp;quot;,&amp;quot;selection&amp;quot;:{&amp;quot;start&amp;quot;:0,&amp;quot;end&amp;quot;:1},&amp;quot;recordId&amp;quot;:&amp;quot;MdqQdFTXMoa1VLxG5Y0cHxWdnwl&amp;quot;}],&amp;quot;payloadMap&amp;quot;:{},&amp;quot;isCut&amp;quot;:false}&quot;&gt;&lt;/span&gt;&lt;/div&gt;&lt;/div&gt;&lt;span class=&quot;lark-record-clipboard&quot; data-lark-record-format=&quot;docx/text&quot; data-lark-record-data=&quot;{&amp;quot;rootId&amp;quot;:&amp;quot;BNPAdGCBEommW2xqo2ccPuPGn6e&amp;quot;,&amp;quot;text&amp;quot;:{&amp;quot;initialAttributedTexts&amp;quot;:{&amp;quot;text&amp;quot;:{&amp;quot;0&amp;quot;:&amp;quot;价值地图引导的Frontier选择&amp;quot;},&amp;quot;attribs&amp;quot;:{&amp;quot;0&amp;quot;:&amp;quot;*0*1+h&amp;quot;}},&amp;quot;apool&amp;quot;:{&amp;quot;numToAttrib&amp;quot;:{&amp;quot;0&amp;quot;:[&amp;quot;author&amp;quot;,&amp;quot;7080140424181972994&amp;quot;],&amp;quot;1&amp;quot;:[&amp;quot;bold&amp;quot;,&amp;quot;true&amp;quot;]},&amp;quot;nextNum&amp;quot;:2}},&amp;quot;type&amp;quot;:&amp;quot;text&amp;quot;,&amp;quot;referenceRecordMap&amp;quot;:{},&amp;quot;extra&amp;quot;:{&amp;quot;channel&amp;quot;:&amp;quot;saas&amp;quot;,&amp;quot;isEqualBlockSelection&amp;quot;:false,&amp;quot;pasteRandomId&amp;quot;:&amp;quot;e27646a3-14b2-4f86-8ac1-85d0b10dd6ea&amp;quot;,&amp;quot;mention_page_title&amp;quot;:{},&amp;quot;external_mention_url&amp;quot;:{}},&amp;quot;isKeepQuoteContainer&amp;quot;:false,&amp;quot;isFromCode&amp;quot;:false,&amp;quot;selection&amp;quot;:[{&amp;quot;id&amp;quot;:241,&amp;quot;type&amp;quot;:&amp;quot;text&amp;quot;,&amp;quot;selection&amp;quot;:{&amp;quot;start&amp;quot;:0,&amp;quot;end&amp;quot;:17},&amp;quot;recordId&amp;quot;:&amp;quot;MrWGdxZGiolvprx9qxSc6dqvnWe&amp;quot;}],&amp;quot;payloadMap&amp;quot;:{},&amp;quot;isCut&amp;quot;:false}&quot;&gt;&lt;/span&gt;" style="rounded=0;whiteSpace=wrap;html=1;" vertex="1" parent="1">
          <mxGeometry x="846" y="512" width="299" height="29" as="geometry" />
        </mxCell>
        <mxCell id="zx14Y4O1JEKNaO2EkPZ3-68" value="&lt;font style=&quot;font-size: 14px;&quot;&gt;&lt;b&gt;高效训练&lt;/b&gt;&lt;/font&gt;" style="rounded=1;whiteSpace=wrap;html=1;verticalAlign=top;" vertex="1" parent="1">
          <mxGeometry x="1190" y="610" width="210" height="247" as="geometry" />
        </mxCell>
        <mxCell id="zx14Y4O1JEKNaO2EkPZ3-69" value="渐进式课程学习" style="rounded=0;whiteSpace=wrap;html=1;verticalAlign=top;dashed=1;dashPattern=8 8;" vertex="1" parent="1">
          <mxGeometry x="1203" y="640" width="185" height="152" as="geometry" />
        </mxCell>
        <mxCell id="zx14Y4O1JEKNaO2EkPZ3-70" style="edgeStyle=orthogonalEdgeStyle;rounded=0;orthogonalLoop=1;jettySize=auto;html=1;entryX=0.5;entryY=0;entryDx=0;entryDy=0;" edge="1" parent="1" source="zx14Y4O1JEKNaO2EkPZ3-71" target="zx14Y4O1JEKNaO2EkPZ3-74">
          <mxGeometry relative="1" as="geometry" />
        </mxCell>
        <mxCell id="zx14Y4O1JEKNaO2EkPZ3-71" value="几何阶段" style="rounded=0;whiteSpace=wrap;html=1;" vertex="1" parent="1">
          <mxGeometry x="1217" y="671" width="157" height="28" as="geometry" />
        </mxCell>
        <mxCell id="zx14Y4O1JEKNaO2EkPZ3-72" value="分布式训练" style="rounded=0;whiteSpace=wrap;html=1;" vertex="1" parent="1">
          <mxGeometry x="1203" y="810" width="183" height="31" as="geometry" />
        </mxCell>
        <mxCell id="zx14Y4O1JEKNaO2EkPZ3-73" style="edgeStyle=orthogonalEdgeStyle;rounded=0;orthogonalLoop=1;jettySize=auto;html=1;entryX=0.5;entryY=0;entryDx=0;entryDy=0;" edge="1" parent="1" source="zx14Y4O1JEKNaO2EkPZ3-74" target="zx14Y4O1JEKNaO2EkPZ3-75">
          <mxGeometry relative="1" as="geometry" />
        </mxCell>
        <mxCell id="zx14Y4O1JEKNaO2EkPZ3-74" value="语义阶段" style="rounded=0;whiteSpace=wrap;html=1;" vertex="1" parent="1">
          <mxGeometry x="1217" y="715" width="157" height="28" as="geometry" />
        </mxCell>
        <mxCell id="zx14Y4O1JEKNaO2EkPZ3-75" value="风险阶段" style="rounded=0;whiteSpace=wrap;html=1;" vertex="1" parent="1">
          <mxGeometry x="1217" y="758" width="157" height="28" as="geometry" />
        </mxCell>
        <mxCell id="zx14Y4O1JEKNaO2EkPZ3-76" style="edgeStyle=orthogonalEdgeStyle;rounded=0;orthogonalLoop=1;jettySize=auto;html=1;entryX=0.2;entryY=-0.017;entryDx=0;entryDy=0;entryPerimeter=0;" edge="1" parent="1" source="zx14Y4O1JEKNaO2EkPZ3-10" target="zx14Y4O1JEKNaO2EkPZ3-66">
          <mxGeometry relative="1" as="geometry" />
        </mxCell>
        <mxCell id="zx14Y4O1JEKNaO2EkPZ3-77" style="rounded=0;orthogonalLoop=1;jettySize=auto;html=1;entryX=0.585;entryY=-0.003;entryDx=0;entryDy=0;entryPerimeter=0;" edge="1" parent="1" source="zx14Y4O1JEKNaO2EkPZ3-7" target="zx14Y4O1JEKNaO2EkPZ3-23">
          <mxGeometry relative="1" as="geometry" />
        </mxCell>
        <mxCell id="zx14Y4O1JEKNaO2EkPZ3-78" style="rounded=0;orthogonalLoop=1;jettySize=auto;html=1;entryX=0.24;entryY=0.004;entryDx=0;entryDy=0;entryPerimeter=0;" edge="1" parent="1" source="zx14Y4O1JEKNaO2EkPZ3-23" target="zx14Y4O1JEKNaO2EkPZ3-22">
          <mxGeometry relative="1" as="geometry" />
        </mxCell>
        <mxCell id="zx14Y4O1JEKNaO2EkPZ3-79" style="rounded=0;orthogonalLoop=1;jettySize=auto;html=1;exitX=0.5;exitY=1;exitDx=0;exitDy=0;entryX=0.241;entryY=0.012;entryDx=0;entryDy=0;entryPerimeter=0;" edge="1" parent="1" source="zx14Y4O1JEKNaO2EkPZ3-24" target="zx14Y4O1JEKNaO2EkPZ3-47">
          <mxGeometry relative="1" as="geometry" />
        </mxCell>
        <mxCell id="zx14Y4O1JEKNaO2EkPZ3-80" style="edgeStyle=orthogonalEdgeStyle;rounded=0;orthogonalLoop=1;jettySize=auto;html=1;entryX=0.797;entryY=-0.039;entryDx=0;entryDy=0;entryPerimeter=0;" edge="1" parent="1" source="zx14Y4O1JEKNaO2EkPZ3-17" target="zx14Y4O1JEKNaO2EkPZ3-66">
          <mxGeometry relative="1" as="geometry" />
        </mxCell>
        <mxCell id="zx14Y4O1JEKNaO2EkPZ3-81" value="" style="endArrow=none;html=1;rounded=0;" edge="1" parent="1">
          <mxGeometry width="50" height="50" relative="1" as="geometry">
            <mxPoint x="996.97" y="383" as="sourcePoint" />
            <mxPoint x="997" y="285" as="targetPoint" />
          </mxGeometry>
        </mxCell>
        <mxCell id="zx14Y4O1JEKNaO2EkPZ3-82" style="rounded=0;orthogonalLoop=1;jettySize=auto;html=1;entryX=0.486;entryY=1.009;entryDx=0;entryDy=0;entryPerimeter=0;exitX=0.534;exitY=-0.001;exitDx=0;exitDy=0;exitPerimeter=0;" edge="1" parent="1" source="zx14Y4O1JEKNaO2EkPZ3-54" target="zx14Y4O1JEKNaO2EkPZ3-83">
          <mxGeometry relative="1" as="geometry" />
        </mxCell>
        <mxCell id="zx14Y4O1JEKNaO2EkPZ3-83" value="机器人" style="rounded=1;whiteSpace=wrap;html=1;verticalAlign=top;" vertex="1" parent="1">
          <mxGeometry x="1219" y="226" width="174" height="105" as="geometry" />
        </mxCell>
        <mxCell id="zx14Y4O1JEKNaO2EkPZ3-84" value="开放语义词汇&lt;div&gt;&lt;br&gt;&lt;/div&gt;&lt;div&gt;&lt;br&gt;&lt;div&gt;&lt;div&gt;&lt;div data-docx-has-block-data=&quot;false&quot; data-lark-html-role=&quot;root&quot; data-page-id=&quot;BNPAdGCBEommW2xqo2ccPuPGn6e&quot;&gt;&lt;div class=&quot;old-record-id-QwI6dB36EouggJx195IcqivAn2f&quot;&gt;&lt;font face=&quot;Comic Sans MS&quot;&gt;“trapped human”&lt;/font&gt;&lt;/div&gt;&lt;/div&gt;&lt;span class=&quot;lark-record-clipboard&quot; data-lark-record-format=&quot;docx/text&quot; data-lark-record-data=&quot;{&amp;quot;rootId&amp;quot;:&amp;quot;BNPAdGCBEommW2xqo2ccPuPGn6e&amp;quot;,&amp;quot;text&amp;quot;:{&amp;quot;initialAttributedTexts&amp;quot;:{&amp;quot;text&amp;quot;:{&amp;quot;0&amp;quot;:&amp;quot;trapped human&amp;quot;},&amp;quot;attribs&amp;quot;:{&amp;quot;0&amp;quot;:&amp;quot;*0+d&amp;quot;}},&amp;quot;apool&amp;quot;:{&amp;quot;numToAttrib&amp;quot;:{&amp;quot;0&amp;quot;:[&amp;quot;author&amp;quot;,&amp;quot;7080140424181972994&amp;quot;]},&amp;quot;nextNum&amp;quot;:1}},&amp;quot;type&amp;quot;:&amp;quot;text&amp;quot;,&amp;quot;referenceRecordMap&amp;quot;:{},&amp;quot;extra&amp;quot;:{&amp;quot;channel&amp;quot;:&amp;quot;saas&amp;quot;,&amp;quot;isEqualBlockSelection&amp;quot;:false,&amp;quot;pasteRandomId&amp;quot;:&amp;quot;67807fed-51d5-4db6-aad5-61294a914926&amp;quot;,&amp;quot;mention_page_title&amp;quot;:{},&amp;quot;external_mention_url&amp;quot;:{}},&amp;quot;isKeepQuoteContainer&amp;quot;:false,&amp;quot;isFromCode&amp;quot;:false,&amp;quot;selection&amp;quot;:[{&amp;quot;id&amp;quot;:396,&amp;quot;type&amp;quot;:&amp;quot;text&amp;quot;,&amp;quot;selection&amp;quot;:{&amp;quot;start&amp;quot;:19,&amp;quot;end&amp;quot;:32},&amp;quot;recordId&amp;quot;:&amp;quot;QwI6dB36EouggJx195IcqivAn2f&amp;quot;}],&amp;quot;payloadMap&amp;quot;:{},&amp;quot;isCut&amp;quot;:false}&quot;&gt;&lt;/span&gt;&lt;/div&gt;&lt;/div&gt;&lt;/div&gt;" style="rounded=1;whiteSpace=wrap;html=1;verticalAlign=top;" vertex="1" parent="1">
          <mxGeometry x="253" y="443" width="115" height="94" as="geometry" />
        </mxCell>
        <mxCell id="zx14Y4O1JEKNaO2EkPZ3-85" style="edgeStyle=orthogonalEdgeStyle;rounded=0;orthogonalLoop=1;jettySize=auto;html=1;entryX=0.003;entryY=0.575;entryDx=0;entryDy=0;entryPerimeter=0;" edge="1" parent="1" source="zx14Y4O1JEKNaO2EkPZ3-84" target="zx14Y4O1JEKNaO2EkPZ3-51">
          <mxGeometry relative="1" as="geometry">
            <Array as="points">
              <mxPoint x="402" y="490" />
              <mxPoint x="402" y="510" />
            </Array>
          </mxGeometry>
        </mxCell>
        <mxCell id="zx14Y4O1JEKNaO2EkPZ3-86" style="edgeStyle=orthogonalEdgeStyle;rounded=0;orthogonalLoop=1;jettySize=auto;html=1;entryX=0.003;entryY=0.631;entryDx=0;entryDy=0;entryPerimeter=0;" edge="1" parent="1" source="zx14Y4O1JEKNaO2EkPZ3-31" target="zx14Y4O1JEKNaO2EkPZ3-53">
          <mxGeometry relative="1" as="geometry">
            <Array as="points">
              <mxPoint x="402" y="396" />
              <mxPoint x="402" y="455" />
            </Array>
          </mxGeometry>
        </mxCell>
        <mxCell id="zx14Y4O1JEKNaO2EkPZ3-87" style="edgeStyle=orthogonalEdgeStyle;rounded=0;orthogonalLoop=1;jettySize=auto;html=1;entryX=-0.002;entryY=0.638;entryDx=0;entryDy=0;entryPerimeter=0;" edge="1" parent="1" source="zx14Y4O1JEKNaO2EkPZ3-53" target="zx14Y4O1JEKNaO2EkPZ3-63">
          <mxGeometry relative="1" as="geometry">
            <Array as="points">
              <mxPoint x="609" y="450" />
              <mxPoint x="609" y="516" />
            </Array>
          </mxGeometry>
        </mxCell>
        <mxCell id="zx14Y4O1JEKNaO2EkPZ3-88" style="edgeStyle=orthogonalEdgeStyle;rounded=0;orthogonalLoop=1;jettySize=auto;html=1;entryX=0.586;entryY=-0.001;entryDx=0;entryDy=0;entryPerimeter=0;" edge="1" parent="1" source="zx14Y4O1JEKNaO2EkPZ3-67" target="zx14Y4O1JEKNaO2EkPZ3-23">
          <mxGeometry relative="1" as="geometry">
            <Array as="points">
              <mxPoint x="996" y="580" />
              <mxPoint x="512" y="580" />
            </Array>
          </mxGeometry>
        </mxCell>
      </root>
    </mxGraphModel>
  </diagram>
</mxfile>
